<svg width="54" height="99" viewBox="0 0 54 99" fill="none" xmlns="http://www.w3.org/2000/svg">
<path fill-rule="evenodd" clip-rule="evenodd" d="M11.6048 15.1879C15.9338 9.3904 15.699 1.8516 8.38807 2.2886C4.30255 2.5328 0.362703 5.21397 0.267978 12.0532L5.33326e-07 49.6895C0.0143537 55.9467 2.81318 59.4479 7.97383 59.1395C13.0628 58.8353 16.1757 55.5561 16.6065 51.9338C16.9743 48.4591 15.9011 46.1495 14.3391 44.0849L4.56133 30.9304C2.13373 27.6228 5.61782 24.5372 8.68621 27.7346L25.6887 45.7385C29.0436 49.4723 30.1295 52.3645 27.4238 57.8146L16.4557 74.8516C15.6571 76.0644 15.0491 77.2072 14.5667 78.2498C11.4607 84.9618 12.2348 88.2474 19.3377 91.5343L32.3055 97.5351C39.1478 100.701 43.6687 98.2837 45.3875 94.5693C47.1064 90.8549 45.9579 85.8137 41.6571 83.8234C39.7021 82.9188 37.0595 82.6454 33.7088 83.3892L25.5726 85.2417C21.0731 86.2452 18.52 86.8043 17.1515 86.1711C16.0437 85.6584 15.1227 83.8872 15.9067 82.1929C16.5098 80.8897 18.106 79.4921 20.1486 77.9846L45.7191 58.8027C48.0428 57.0297 49.4989 55.2509 50.283 53.5566C52.5748 48.6041 49.5501 44.1979 45.8357 42.4791C45.3375 42.2485 44.9723 42.041 44.1432 41.7259L17.477 31.597C14.9714 30.5959 14.2995 28.9816 14.4919 27.3876C14.6934 25.4839 17.6176 24.744 20.1961 24.0916C20.5591 23.9998 20.9152 23.9097 21.256 23.8183L43.3991 17.6034C49.8359 15.78 52.7264 13.5931 53.2866 8.52442C53.7463 4.18104 50.5334 -0.230553 46.5195 0.00936481C42.0756 0.27499 39.105 2.32278 34.656 6.11337L16.7969 21.4233C13.3759 24.3612 10.953 25.9447 8.91375 23.1174C7.81603 21.6005 8.74551 19.0993 10.5394 16.6183L11.6048 15.1879Z" fill="#F2EDE9"/>
</svg>
